<svg id="Ebene_1" data-name="Ebene 1" xmlns="http://www.w3.org/2000/svg" viewBox="0 0 769 805"><defs><style>.cls-1{fill:none;stroke:#fff;stroke-miterlimit:10;}.cls-2{fill:#fff;}.cls-3{fill:#7c272d;}.cls-4{fill:#97272d;}.cls-5{fill:#662d91;}.cls-6{fill:#c1272d;}.cls-7{fill:#fcee21;}.cls-8{fill:#85272d;}.cls-9{fill:#ccc;}.cls-10{fill:#f15a24;}.cls-11{opacity:0.22;}</style></defs><title>mageFire_shoot</title><ellipse id="hitkreis" class="cls-1" cx="384.5" cy="402.5" rx="384" ry="402"/><path class="cls-2" d="M566.35,318" transform="translate(-139 -95)"/><path class="cls-3" d="M546.56,318.54s-85.12-217.88-171.15,0" transform="translate(-139 -95)"/><path class="cls-3" d="M544,711.34s-85.12,217.88-171.14,0" transform="translate(-139 -95)"/><ellipse class="cls-4" cx="318.75" cy="419.61" rx="218.41" ry="226.52"/><path class="cls-5" d="M238.81,514.61c0-125.2,98.22-227.06,218.94-227.06s219,101.86,219,227.06-98.22,227.06-219,227.06S238.81,639.81,238.81,514.61Zm436.82,0c0-124.61-97.74-226-217.88-226S239.88,390,239.88,514.61s97.74,226,217.87,226S675.63,639.21,675.63,514.61Z" transform="translate(-139 -95)"/><polyline class="cls-6" points="318.75 341 6.56 419.61 318.75 507.55"/><polygon class="cls-7" points="395.45 308.83 378.38 308.13 368.14 321.8 363.52 305.36 347.36 299.84 361.57 290.37 361.83 273.29 375.23 283.88 391.55 278.85 385.62 294.86 395.45 308.83"/><polygon class="cls-7" points="470.2 482.7 455.26 463.5 430.98 464.92 444.62 444.78 435.77 422.12 459.14 428.87 477.95 413.45 478.75 437.76 499.23 450.89 476.36 459.16 470.2 482.7"/><polygon class="cls-7" points="302.21 549.16 323.44 538.69 326.84 515.27 343.36 532.22 366.68 528.22 355.67 549.16 366.68 570.11 343.36 566.11 326.84 583.06 323.44 559.64 302.21 549.16"/><polygon class="cls-7" points="225.55 569.88 233.09 550.82 221.66 533.81 242.11 535.09 254.75 518.96 259.87 538.8 279.11 545.85 261.81 556.84 261.06 577.32 245.26 564.27 225.55 569.88"/><polygon class="cls-7" points="192.41 308.83 198.76 290.19 187.02 274.39 206.71 274.68 218.11 258.62 223.92 277.44 242.71 283.32 226.61 294.66 226.82 314.35 211.06 302.54 192.41 308.83"/><polygon class="cls-7" points="293.93 288.11 290.14 267.88 271.33 259.53 289.4 249.68 291.53 229.22 306.48 243.35 326.61 239.06 317.78 257.64 328.08 275.45 307.68 272.8 293.93 288.11"/><polygon class="cls-7" points="467.96 368.91 463.35 350.29 445.39 343.54 461.67 333.4 462.55 314.23 477.23 326.58 495.72 321.49 488.51 339.27 499.07 355.28 479.93 353.92 467.96 368.91"/><polygon class="cls-7" points="354.34 420.46 357.46 395.75 338.88 379.18 363.34 374.51 373.36 351.71 385.36 373.53 410.14 376.02 393.09 394.17 398.38 418.51 375.85 407.91 354.34 420.46"/><polygon class="cls-7" points="418.24 547.09 426.7 530.49 417.82 514.1 436.24 517.02 449.08 503.51 451.99 521.92 468.81 529.96 452.2 538.42 449.75 556.89 436.57 543.71 418.24 547.09"/><polygon class="cls-7" points="165.39 450.46 168 426.52 149.76 410.81 173.33 405.89 182.64 383.69 194.6 404.59 218.59 406.59 202.41 424.42 207.93 447.85 185.97 437.97 165.39 450.46"/><polygon class="cls-7" points="96.52 444.33 101.02 428.39 90.44 415.65 106.99 415 115.84 401 121.57 416.54 137.62 420.63 124.61 430.88 125.67 447.41 111.91 438.2 96.52 444.33"/><polygon class="cls-7" points="260.78 447.64 263.39 425.39 246.54 410.63 268.51 406.24 277.35 385.65 288.31 405.19 310.62 407.23 295.43 423.7 300.38 445.54 280.02 436.18 260.78 447.64"/><path class="cls-6" d="M458,435.69s57.1,65.72,0,167" transform="translate(-139 -95)"/><polyline class="cls-8" points="318.93 126.36 538.72 141.44 538.72 197.46 400.39 208.24"/><circle class="cls-9" cx="553.26" cy="175.38" r="106.8"/><path d="M692.26,378.11A107.74,107.74,0,1,1,800,270.38,107.86,107.86,0,0,1,692.26,378.11Zm0-213.6A105.87,105.87,0,1,0,798.13,270.38,106,106,0,0,0,692.26,164.51Z" transform="translate(-139 -95)"/><circle class="cls-10" cx="554.2" cy="176.31" r="75.88"/><path class="cls-6" d="M693.2,360.31a89,89,0,1,1,89-89A89.09,89.09,0,0,1,693.2,360.31Zm0-151.76A62.77,62.77,0,1,0,756,271.31,62.83,62.83,0,0,0,693.2,208.55Z" transform="translate(-139 -95)"/><circle class="cls-7" cx="554.47" cy="176.74" r="32.52"/><path class="cls-7" d="M693.47,305.2a33.46,33.46,0,1,1,33.46-33.46A33.5,33.5,0,0,1,693.47,305.2Zm0-65a31.59,31.59,0,1,0,31.58,31.58A31.62,31.62,0,0,0,693.47,240.16Z" transform="translate(-139 -95)"/><g class="cls-11"><circle class="cls-9" cx="553.26" cy="175.38" r="106.8"/><path d="M692.26,378.11A107.74,107.74,0,1,1,800,270.38,107.86,107.86,0,0,1,692.26,378.11Zm0-213.6A105.87,105.87,0,1,0,798.13,270.38,106,106,0,0,0,692.26,164.51Z" transform="translate(-139 -95)"/></g><g class="cls-11"><ellipse class="cls-2" cx="713.44" cy="237.02" rx="18.42" ry="17.89" transform="translate(-97.64 478.9) rotate(-45)"/><path class="cls-2" d="M712.9,256.11a18.43,18.43,0,0,1-13.15-5.4c-7.34-7.34-7.17-19.45.38-27a19.44,19.44,0,0,1,13.56-5.78,18.42,18.42,0,0,1,13.43,5.4c7.34,7.34,7.17,19.45-.38,27a19.44,19.44,0,0,1-13.56,5.78Zm1.07-36.3h-.26A17.68,17.68,0,0,0,701.45,225c-6.81,6.81-7,17.73-.37,24.34a16.69,16.69,0,0,0,12.08,4.86A17.66,17.66,0,0,0,725.42,249c6.82-6.81,7-17.74.38-24.34A16.58,16.58,0,0,0,714,219.81Z" transform="translate(-139 -95)"/></g></svg>