<svg id="Ebene_1" data-name="Ebene 1" xmlns="http://www.w3.org/2000/svg" viewBox="0 0 768 804"><defs><style>.cls-1,.cls-14{fill:#fff;}.cls-1,.cls-2,.cls-3,.cls-4,.cls-5,.cls-6,.cls-8{stroke:#000;stroke-miterlimit:10;}.cls-2{fill:#7c272d;}.cls-3{fill:#97272d;}.cls-4{fill:#662d91;}.cls-11,.cls-5{fill:#c1272d;}.cls-12,.cls-6{fill:#fcee21;}.cls-7{fill:none;}.cls-8{fill:#85272d;}.cls-9{fill:#ccc;}.cls-10{fill:#f15a24;}.cls-13{opacity:0.22;}</style></defs><title>mageFire_shoot1</title><path class="cls-1" d="M572.13,310.23" transform="translate(-139.5 -95.5)"/><path class="cls-2" d="M553.76,310.71s-79-202.24-158.85,0" transform="translate(-139.5 -95.5)"/><path class="cls-2" d="M551.37,675.29s-79,202.24-158.86,0" transform="translate(-139.5 -95.5)"/><ellipse class="cls-3" cx="331.83" cy="397.19" rx="202.72" ry="210.25"/><path class="cls-4" d="M268.11,492.69c0-116.21,91.17-210.75,203.22-210.75s203.23,94.54,203.23,210.75S583.39,703.44,471.33,703.44,268.11,608.9,268.11,492.69Zm405.45,0c0-115.65-90.72-209.75-202.23-209.75S269.11,377,269.11,492.69s90.72,209.75,202.22,209.75S673.56,608.35,673.56,492.69Z" transform="translate(-139.5 -95.5)"/><polyline class="cls-5" points="331.83 324.22 42.06 397.19 331.83 478.82"/><polygon class="cls-6" points="403.02 294.37 387.18 293.72 377.67 306.41 373.39 291.14 358.38 286.02 371.58 277.23 371.81 261.38 384.25 271.21 399.4 266.54 393.89 281.4 403.02 294.37"/><polygon class="cls-6" points="472.4 455.75 458.54 437.93 436 439.25 448.66 420.55 440.44 399.52 462.13 405.79 479.6 391.47 480.34 414.04 499.35 426.22 478.12 433.9 472.4 455.75"/><polygon class="cls-6" points="316.48 517.44 336.18 507.72 339.34 485.98 354.67 501.71 376.32 498 366.1 517.44 376.32 536.88 354.67 533.17 339.34 548.9 336.18 527.16 316.48 517.44"/><polygon class="cls-6" points="245.33 536.67 252.32 518.98 241.71 503.19 260.69 504.38 272.43 489.4 277.17 507.83 295.04 514.36 278.98 524.57 278.29 543.58 263.62 531.46 245.33 536.67"/><polygon class="cls-6" points="214.56 294.37 220.46 277.07 209.56 262.4 227.83 262.67 238.42 247.77 243.81 265.23 261.25 270.69 246.31 281.21 246.5 299.49 231.88 288.53 214.56 294.37"/><polygon class="cls-6" points="308.79 275.13 305.28 256.36 287.82 248.61 304.59 239.47 306.57 220.47 320.44 233.6 339.12 229.61 330.93 246.86 340.49 263.39 321.55 260.93 308.79 275.13"/><polygon class="cls-6" points="470.33 350.13 466.04 332.85 449.38 326.59 464.49 317.17 465.3 299.38 478.92 310.85 496.09 306.12 489.4 322.62 499.2 337.49 481.44 336.22 470.33 350.13"/><polygon class="cls-6" points="364.87 397.98 367.76 375.05 350.51 359.66 373.21 355.33 382.52 334.17 393.65 354.42 416.65 356.73 400.83 373.58 405.74 396.17 384.83 386.33 364.87 397.98"/><polygon class="cls-6" points="424.17 515.52 432.03 500.11 423.79 484.89 440.88 487.6 452.8 475.06 455.5 492.15 471.11 499.62 455.69 507.47 453.42 524.62 441.19 512.38 424.17 515.52"/><polygon class="cls-6" points="189.48 425.83 191.9 403.61 174.98 389.02 196.85 384.46 205.5 363.85 216.6 383.25 238.87 385.1 223.85 401.65 228.97 423.41 208.59 414.24 189.48 425.83"/><polygon class="cls-6" points="125.56 420.13 129.74 405.34 119.92 393.51 135.28 392.92 143.49 379.92 148.81 394.35 163.7 398.14 151.63 407.66 152.62 423 139.84 414.45 125.56 420.13"/><polygon class="cls-6" points="278.02 423.21 280.44 402.56 264.81 388.86 285.2 384.78 293.4 365.68 303.58 383.81 324.28 385.7 310.18 400.99 314.78 421.26 295.89 412.58 278.02 423.21"/><path class="cls-5" d="M471.56,419.44s53,61,0,155" transform="translate(-139.5 -95.5)"/><ellipse id="hitkreis" class="cls-7" cx="384" cy="402" rx="384" ry="402"/><polyline class="cls-8" points="332 125 536 139 536 191 407.61 201"/><circle class="cls-9" cx="549.5" cy="170.5" r="99.13"/><path d="M689,366A100,100,0,1,1,789,266,100.11,100.11,0,0,1,689,366Zm0-198.26A98.26,98.26,0,1,0,787.26,266,98.37,98.37,0,0,0,689,167.74Z" transform="translate(-139.5 -95.5)"/><circle class="cls-10" cx="550.37" cy="171.37" r="70.43"/><path class="cls-11" d="M689.87,349.48a82.61,82.61,0,1,1,82.61-82.61A82.71,82.71,0,0,1,689.87,349.48Zm0-140.87a58.26,58.26,0,1,0,58.26,58.26A58.32,58.32,0,0,0,689.87,208.61Z" transform="translate(-139.5 -95.5)"/><circle class="cls-12" cx="550.62" cy="171.77" r="30.19"/><path class="cls-12" d="M690.12,298.32a31.06,31.06,0,1,1,31-31.05A31.09,31.09,0,0,1,690.12,298.32Zm0-60.37a29.32,29.32,0,1,0,29.31,29.32A29.35,29.35,0,0,0,690.12,238Z" transform="translate(-139.5 -95.5)"/><g class="cls-13"><circle class="cls-9" cx="549.5" cy="170.5" r="99.13"/><path d="M689,366A100,100,0,1,1,789,266,100.11,100.11,0,0,1,689,366Zm0-198.26A98.26,98.26,0,1,0,787.26,266,98.37,98.37,0,0,0,689,167.74Z" transform="translate(-139.5 -95.5)"/></g><g class="cls-13"><ellipse class="cls-14" cx="708.65" cy="235.04" rx="17.09" ry="16.6" transform="translate(-98.14 474.44) rotate(-45)"/><path class="cls-14" d="M708.15,252.76a17.08,17.08,0,0,1-12.2-5,17.74,17.74,0,0,1,.35-25.05,18.11,18.11,0,0,1,12.59-5.36,17.08,17.08,0,0,1,12.46,5A17.74,17.74,0,0,1,721,247.4a18.11,18.11,0,0,1-12.59,5.36Zm1-33.7h-.24a16.41,16.41,0,0,0-11.38,4.86,16,16,0,0,0-.35,22.59A15.48,15.48,0,0,0,708.39,251a16.4,16.4,0,0,0,11.39-4.85,16,16,0,0,0,.34-22.6A15.38,15.38,0,0,0,709.15,219.06Z" transform="translate(-139.5 -95.5)"/></g></svg>